<svg width="31" height="31" viewBox="0 0 31 31" fill="none" xmlns="http://www.w3.org/2000/svg">
<path d="M15.375 0.125C11.2973 0.125 7.3866 1.74486 4.50323 4.62823C1.61986 7.5116 0 11.4223 0 15.5C0 19.5777 1.61986 23.4884 4.50323 26.3718C7.3866 29.2551 11.2973 30.875 15.375 30.875C19.4527 30.875 23.3634 29.2551 26.2468 26.3718C29.1301 23.4884 30.75 19.5777 30.75 15.5C30.75 11.4223 29.1301 7.5116 26.2468 4.62823C23.3634 1.74486 19.4527 0.125 15.375 0.125ZM23.91 16.385C23.7208 16.6339 23.4586 16.8174 23.16 16.91L20.745 17.72C20.007 17.9722 19.3354 18.3875 18.78 18.935C18.2283 19.4871 17.8124 20.1598 17.565 20.9L16.74 23.315C16.629 23.5873 16.4479 23.8254 16.215 24.005C15.966 24.1854 15.6675 24.2849 15.36 24.29C15.051 24.2945 14.7495 24.1941 14.505 24.005C14.2555 23.8259 14.0671 23.5746 13.965 23.285L13.17 20.87C12.9229 20.1272 12.5052 19.4526 11.9504 18.9004C11.3955 18.3481 10.719 17.9336 9.975 17.69L7.575 16.895C7.28539 16.7929 7.03407 16.6045 6.855 16.355C6.66802 16.1094 6.56778 15.8087 6.57 15.5C6.57202 15.1874 6.67166 14.8832 6.855 14.63C7.02727 14.3869 7.27515 14.2075 7.56 14.12L9.975 13.31C10.7215 13.0572 11.4028 12.6423 11.97 12.095C12.525 11.534 12.9405 10.85 13.185 10.1L13.995 7.73C14.0849 7.4462 14.2572 7.19556 14.49 7.01C14.7292 6.80798 15.0319 6.69648 15.345 6.695C15.6426 6.68989 15.935 6.77343 16.185 6.935C16.449 7.0991 16.6498 7.34751 16.755 7.64L17.565 10.085C17.817 10.8395 18.237 11.5265 18.795 12.095C19.3587 12.6392 20.0345 13.0539 20.775 13.31L23.19 14.15C23.477 14.2415 23.7251 14.4263 23.895 14.675C24.0701 14.9258 24.1643 15.2241 24.165 15.53C24.1635 15.833 24.075 16.13 23.91 16.385Z" fill="white"/>
</svg>
